
        <svg xmlns="http://www.w3.org/2000/svg" xmlns:xlink="http://www.w3.org/1999/xlink" version="1.1" width="3162.089238359136" 
        height="623.5376652067689" viewBox="0 0 3162.089238359136 623.5376652067689">
			<rect fill="#ffffff" width="3162.089238359136" height="623.5376652067689"/>
			<g transform="scale(8.10446191795679) translate(10, 10)">
				<defs id="SvgjsDefs22439"></defs><g id="SvgjsG22440" featureKey="symbolFeature-0" transform="matrix(0.5919320583343506,0,0,0.5919320583343506,11.306847584973648,-0.10987256527803901)" fill="#13db1b"><path xmlns="http://www.w3.org/2000/svg" d="M92.812,49.125c-2.345,0-4.375,1.334-5.383,3.281l-27.775-4.741c-0.092-0.628-0.235-1.234-0.43-1.82l22.734-11.268  c1.703,1.74,4.389,2.262,6.658,1.072C91.389,34.191,92.453,30.771,91,28c-1.453-2.768-4.875-3.834-7.646-2.381  c-2.172,1.143-3.273,3.49-2.957,5.785l-22.842,11.32c-0.492-0.637-1.05-1.221-1.673-1.732l18.902-26.375  c0.938,0.109,1.906,0.016,2.84-0.373c2.886-1.207,4.248-4.521,3.043-7.41c-1.204-2.885-4.521-4.246-7.406-3.042  c-2.885,1.205-4.247,4.521-3.042,7.408c0.317,0.76,0.788,1.403,1.353,1.935L52.777,39.235c-0.528-0.188-1.07-0.346-1.633-0.45  l-1.179-19.699c2-0.823,3.41-2.789,3.41-5.086c0-3.037-2.463-5.5-5.5-5.5s-5.5,2.463-5.5,5.5c0,2.541,1.726,4.673,4.066,5.305  l1.161,19.416c-0.691,0.103-1.359,0.267-1.999,0.496L24.944,12.771c0.818-1.131,1.306-2.518,1.306-4.021  c0-3.797-3.078-6.875-6.875-6.875S12.5,4.953,12.5,8.75s3.078,6.875,6.875,6.875c1.009,0,1.964-0.223,2.827-0.613l20.281,25.947  c-1.074,0.875-1.979,1.949-2.647,3.174l-18.602-6.435c0.005-0.1,0.03-0.194,0.03-0.297c0-3.223-2.614-5.84-5.84-5.84  c-3.225,0-5.839,2.617-5.839,5.84c0,3.228,2.614,5.841,5.839,5.841c1.855,0,3.489-0.882,4.558-2.229l18.715,6.473  c-0.091,0.563-0.152,1.136-0.152,1.726c0,0.078,0.01,0.153,0.011,0.231L11.63,58.19c-1-1.605-2.767-2.682-4.797-2.682  c-3.127,0-5.662,2.535-5.662,5.662c0,3.128,2.535,5.662,5.662,5.662c2.967,0,5.374-2.291,5.617-5.195l26.773-8.72  c0.554,1.49,1.428,2.82,2.546,3.905L30.218,73.656c-2.56-0.679-5.217,0.769-6.001,3.321c-0.801,2.615,0.665,5.387,3.283,6.189  c2.617,0.803,5.387-0.667,6.191-3.281c0.449-1.464,0.167-2.963-0.607-4.151l11.601-16.906c1.362,0.635,2.875,1,4.477,1  c0.207,0,0.405-0.019,0.609-0.029l2.371,23.204C49.442,83.932,47.5,86.486,47.5,89.5c0,3.797,3.078,6.875,6.875,6.875  s6.875-3.078,6.875-6.875c0-3.365-2.42-6.161-5.613-6.754L53.346,58.97c1.396-0.599,2.625-1.493,3.637-2.597l16.47,17.112  c-0.521,0.841-0.827,1.828-0.827,2.89c0,3.037,2.463,5.5,5.5,5.5s5.5-2.463,5.5-5.5s-2.463-5.5-5.5-5.5  c-0.615,0-1.205,0.105-1.758,0.292c-0.045-0.029-0.123-0.015-0.268,0.09L58.917,53.404c0.301-0.699,0.524-1.437,0.671-2.203  l27.199,4.647c0.33,3.037,2.9,5.401,6.025,5.401c3.348,0,6.062-2.714,6.062-6.062C98.875,51.84,96.16,49.125,92.812,49.125z"></path></g><g id="SvgjsG22441" featureKey="nameFeature-0" transform="matrix(2.482297897338867,0,0,2.482297897338867,76.11345357180227,-3.6526411637370284)" fill="#005792"><path d="M6.84 20.22 c-1.0933 0 -2.0234 -0.18666 -2.79 -0.56 s-1.3933 -0.88668 -1.88 -1.54 s-0.84332 -1.43 -1.07 -2.33 s-0.34 -1.8833 -0.34 -2.95 s0.11334 -2.05 0.34 -2.95 s0.58332 -1.6733 1.07 -2.32 s1.1133 -1.15 1.88 -1.51 s1.6967 -0.54 2.79 -0.54 s2.0234 0.18 2.79 0.54 s1.3933 0.86334 1.88 1.51 s0.84 1.42 1.06 2.32 s0.33 1.8833 0.33 2.95 s-0.11 2.05 -0.33 2.95 s-0.57334 1.6767 -1.06 2.33 s-1.1133 1.1667 -1.88 1.54 s-1.6967 0.56 -2.79 0.56 z M6.84 17.42 c0.92 0 1.5833 -0.38 1.99 -1.14 s0.61 -1.9067 0.61 -3.44 s-0.19666 -2.66 -0.59 -3.38 s-1.0567 -1.08 -1.99 -1.08 c-0.94666 0 -1.6233 0.36 -2.03 1.08 s-0.61 1.8467 -0.61 3.38 s0.20334 2.68 0.61 3.44 s1.0767 1.14 2.01 1.14 z M24.580000000000002 19.66 c-0.56 0.22666 -1.0966 0.37664 -1.61 0.44998 s-1.0833 0.11 -1.71 0.11 c-1.1333 0 -2.1266 -0.18 -2.98 -0.54 s-1.5633 -0.86334 -2.13 -1.51 s-0.99332 -1.4167 -1.28 -2.31 s-0.43 -1.8733 -0.43 -2.94 s0.14666 -2.0534 0.44 -2.96 s0.72334 -1.6867 1.29 -2.34 s1.27 -1.1633 2.11 -1.53 s1.8 -0.55 2.88 -0.55 c0.62666 0 1.1933 0.06 1.7 0.18 s1 0.28666 1.48 0.5 l-0.82 2.66 c-0.26666 -0.12 -0.56332 -0.22666 -0.88998 -0.32 s-0.71666 -0.14 -1.17 -0.14 c-2.3734 0 -3.56 1.5 -3.56 4.5 c0 1.5067 0.30666 2.62 0.92 3.34 s1.56 1.08 2.84 1.08 c0.42666 0 0.80332 -0.03 1.13 -0.09 s0.65 -0.15 0.97 -0.27 z M26.500000000000004 5.699999999999999 l3.26 0 l0 14.3 l-3.26 0 l0 -14.3 z M32.38 5.82 c0.64 -0.08 1.2266 -0.14334 1.76 -0.19 s1.1 -0.07 1.7 -0.07 c0.73334 0 1.4633 0.07 2.19 0.21 s1.3767 0.38334 1.95 0.73 s1.0367 0.81332 1.39 1.4 s0.53 1.3333 0.53 2.24 c0 0.52 -0.07 0.98666 -0.21 1.4 s-0.31334 0.77668 -0.52 1.09 s-0.43666 0.58668 -0.69 0.82002 s-0.5 0.43 -0.74 0.59 l-0.1 0.06 l0.27 0.44 l0.66 1.1 l0.85 1.42 l0.85 1.41 l0.64 1.09 l0.25 0.42 l-3.66 0 l-3.78 -6.58 l0 6.6 l-3.34 0 l0 -14.18 z M35.72 13.280000000000001 l0.7 -0.32 c0.17334 -0.08 0.38 -0.18 0.62 -0.3 s0.47334 -0.27666 0.7 -0.47 s0.42 -0.42334 0.58 -0.69 s0.24 -0.59332 0.24 -0.97998 c0 -0.41334 -0.06 -0.75668 -0.18 -1.03 s-0.28666 -0.49334 -0.5 -0.66 s-0.46334 -0.28666 -0.75 -0.36 s-0.59666 -0.11 -0.93 -0.11 l-0.23 0 l-0.25 0.02 l0 4.9 z M44.56 5.699999999999999 l8.42 0 c-0.13334 0.50666 -0.26668 0.98666 -0.40002 1.44 s-0.26668 0.92 -0.40002 1.4 l-4.4 0 c0 0.05334 0.0066602 0.13 0.02 0.23 s0.02 0.17666 0.02 0.23 l0 2.1 l4.04 0 l0 2.86 l-4.04 0 l0 2.74 l-0.04 0.46 l5.28 0 l0 2.84 l-8.5 0 l0 -14.3 z M62.52 14.879999999999999 l-2.1 -0.000019531 l1.32 -2.56 l3.88 0 l0 7.24 c-0.77334 0.26666 -1.5167 0.44332 -2.23 0.52998 s-1.3367 0.13 -1.87 0.13 c-1.1733 0 -2.1934 -0.18 -3.06 -0.54 s-1.5867 -0.86 -2.16 -1.5 s-1 -1.4067 -1.28 -2.3 s-0.42 -1.8733 -0.42 -2.94 s0.14666 -2.0534 0.44 -2.96 s0.72334 -1.69 1.29 -2.35 s1.27 -1.1733 2.11 -1.54 s1.8 -0.55 2.88 -0.55 c0.62666 0 1.23 0.04666 1.81 0.14 s1.23 0.28668 1.95 0.58002 l-1.36 2.5 c-0.25334 -0.10666 -0.56 -0.19 -0.92 -0.25 s-0.74666 -0.09 -1.16 -0.09 c-1.1867 0 -2.0834 0.37334 -2.69 1.12 s-0.91 1.88 -0.91 3.4 s0.3 2.6334 0.9 3.34 s1.5067 1.06 2.72 1.06 c0.32 0 0.60666 -0.02666 0.86 -0.08 l0 -2.38 z M67.84 5.699999999999999 l3.26 0 l0 14.3 l-3.26 0 l0 -14.3 z M76.32 13.620000000000001 c-0.42666 -0.17334 -0.82332 -0.36666 -1.19 -0.58 s-0.68332 -0.47 -0.94998 -0.77 s-0.47332 -0.65334 -0.61998 -1.06 s-0.22 -0.89 -0.22 -1.45 c0 -0.69334 0.12 -1.3033 0.36 -1.83 s0.57666 -0.97 1.01 -1.33 s0.95668 -0.63334 1.57 -0.82 s1.2933 -0.28 2.04 -0.28 c0.61334 0 1.24 0.06334 1.88 0.19 s1.4067 0.34332 2.3 0.64998 l-1.36 2.44 c-0.86666 -0.41334 -1.78 -0.62 -2.74 -0.62 c-0.18666 0 -0.38 0.02 -0.58 0.06 s-0.38 0.11 -0.54 0.21 s-0.29334 0.23666 -0.4 0.41 s-0.16 0.4 -0.16 0.68 c0 0.22666 0.04334 0.41332 0.13 0.55998 s0.19666 0.27332 0.33 0.37998 s0.28668 0.19666 0.46002 0.27 s0.34668 0.14334 0.52002 0.21 l1.18 0.46 c0.50666 0.2 0.97 0.41 1.39 0.63 s0.77666 0.48666 1.07 0.8 s0.52 0.69668 0.68 1.15 s0.24 1.02 0.24 1.7 s-0.12334 1.3 -0.37 1.86 s-0.60666 1.0367 -1.08 1.43 s-1.0567 0.7 -1.75 0.92 s-1.4867 0.33 -2.38 0.33 c-0.41334 0 -0.79334 -0.01334 -1.14 -0.04 s-0.68332 -0.07332 -1.01 -0.13998 s-0.65332 -0.14666 -0.97998 -0.24 s-0.67666 -0.21334 -1.05 -0.36 l0.68 -2.8 c0.54666 0.14666 1.0833 0.27666 1.61 0.39 s1.0633 0.17 1.61 0.17 c0.73334 0 1.2933 -0.09666 1.68 -0.29 s0.61332 -0.56334 0.67998 -1.11 c0.02666 -0.28 -0.0066796 -0.51334 -0.10002 -0.7 s-0.22668 -0.34332 -0.40002 -0.46998 s-0.36668 -0.23 -0.58002 -0.31 l-0.64 -0.24 z M87.22 8.54 l-3.42 0 l0 -2.84 l10.3 0 l-0.46 1.4 l-0.46 1.44 l-2.68 0 l0.06 0.56 l0 10.9 l-3.34 0 l0 -11.46 z M95.74000000000001 5.82 c0.64 -0.08 1.2266 -0.14334 1.76 -0.19 s1.1 -0.07 1.7 -0.07 c0.73334 0 1.4633 0.07 2.19 0.21 s1.3767 0.38334 1.95 0.73 s1.0367 0.81332 1.39 1.4 s0.53 1.3333 0.53 2.24 c0 0.52 -0.07 0.98666 -0.21 1.4 s-0.31334 0.77668 -0.52 1.09 s-0.43666 0.58668 -0.69 0.82002 s-0.5 0.43 -0.74 0.59 l-0.1 0.06 l0.27 0.44 l0.66 1.1 l0.85 1.42 l0.85 1.41 l0.64 1.09 l0.25 0.42 l-3.66 0 l-3.78 -6.58 l0 6.6 l-3.34 0 l0 -14.18 z M99.08000000000001 13.280000000000001 l0.7 -0.32 c0.17334 -0.08 0.38 -0.18 0.62 -0.3 s0.47334 -0.27666 0.7 -0.47 s0.42 -0.42334 0.58 -0.69 s0.24 -0.59332 0.24 -0.97998 c0 -0.41334 -0.06 -0.75668 -0.18 -1.03 s-0.28666 -0.49334 -0.5 -0.66 s-0.46334 -0.28666 -0.75 -0.36 s-0.59666 -0.11 -0.93 -0.11 l-0.23 0 l-0.25 0.02 l0 4.9 z M110.7 14.84 l-0.19 -0.38 l-0.51 -1.03 l-0.72 -1.47 l-0.82 -1.68 c-0.65334 -1.3333 -1.4 -2.86 -2.24 -4.58 l3.6 0 l2.58 5.88 c0.48 -1.0933 0.90666 -2.0734 1.28 -2.94 c0.16 -0.36 0.31666 -0.71666 0.47 -1.07 s0.29 -0.67 0.41 -0.95 s0.21666 -0.50334 0.29 -0.67 l0.11 -0.25 l3.5 0 l-4.48 9.16 l0 5.16 l-3.28 0 l0 -5.18 z"></path></g>
			</g>
		</svg>
	